<svg width="55" height="55" viewBox="0 0 55 55" xmlns="http://www.w3.org/2000/svg">
<path d="M12.925 38.9583L11.298 40.5854C10.8711 41.0148 10.6316 41.5956 10.6316 42.2011C10.6316 42.8065 10.8711 43.3873 11.298 43.8167C11.7273 44.2435 12.3082 44.4831 12.9136 44.4831C13.519 44.4831 14.0998 44.2435 14.5292 43.8167L16.1563 42.1896C16.5317 41.7512 16.7279 41.1873 16.7056 40.6105C16.6834 40.0338 16.4443 39.4866 16.0361 39.0785C15.628 38.6704 15.0809 38.4313 14.5041 38.409C13.9274 38.3867 13.3634 38.5829 12.925 38.9583ZM11.4584 27.5C11.4584 26.8922 11.2169 26.3093 10.7872 25.8796C10.3574 25.4498 9.7745 25.2083 9.16671 25.2083H6.87504C6.26725 25.2083 5.68436 25.4498 5.25459 25.8796C4.82482 26.3093 4.58337 26.8922 4.58337 27.5C4.58337 28.1078 4.82482 28.6907 5.25459 29.1205C5.68436 29.5502 6.26725 29.7917 6.87504 29.7917H9.16671C9.7745 29.7917 10.3574 29.5502 10.7872 29.1205C11.2169 28.6907 11.4584 28.1078 11.4584 27.5ZM27.5 11.4583C28.1078 11.4583 28.6907 11.2169 29.1205 10.7871C29.5503 10.3574 29.7917 9.77446 29.7917 9.16668V6.87501C29.7917 6.26722 29.5503 5.68433 29.1205 5.25456C28.6907 4.82479 28.1078 4.58334 27.5 4.58334C26.8923 4.58334 26.3094 4.82479 25.8796 5.25456C25.4498 5.68433 25.2084 6.26722 25.2084 6.87501V9.16668C25.2084 9.77446 25.4498 10.3574 25.8796 10.7871C26.3094 11.2169 26.8923 11.4583 27.5 11.4583ZM12.925 16.1563C13.3519 16.5796 13.928 16.8183 14.5292 16.8208C14.8308 16.8226 15.1298 16.7648 15.409 16.6507C15.6882 16.5367 15.9422 16.3687 16.1563 16.1563C16.5831 15.7269 16.8227 15.1461 16.8227 14.5406C16.8227 13.9352 16.5831 13.3544 16.1563 12.925L14.5292 11.2979C14.0908 10.9225 13.5269 10.7263 12.9501 10.7486C12.3734 10.7709 11.8263 11.01 11.4181 11.4181C11.01 11.8262 10.7709 12.3733 10.7486 12.9501C10.7263 13.5269 10.9225 14.0908 11.298 14.5292L12.925 16.1563ZM40.425 16.8208C41.0262 16.8183 41.6024 16.5796 42.0292 16.1563L43.6563 14.5292C43.8962 14.3237 44.091 14.0709 44.2286 13.7866C44.3661 13.5023 44.4434 13.1926 44.4556 12.877C44.4678 12.5614 44.4146 12.2467 44.2994 11.9526C44.1842 11.6585 44.0094 11.3914 43.7861 11.1681C43.5628 10.9448 43.2957 10.77 43.0016 10.6548C42.7075 10.5396 42.3928 10.4864 42.0772 10.4986C41.7616 10.5108 41.4519 10.5881 41.1676 10.7256C40.8833 10.8632 40.6305 11.058 40.425 11.2979L38.9584 12.925C38.5316 13.3544 38.292 13.9352 38.292 14.5406C38.292 15.1461 38.5316 15.7269 38.9584 16.1563C39.3624 16.5581 39.9016 16.7951 40.4709 16.8208H40.425ZM48.125 25.2083H45.8334C45.2256 25.2083 44.6427 25.4498 44.2129 25.8796C43.7831 26.3093 43.5417 26.8922 43.5417 27.5C43.5417 28.1078 43.7831 28.6907 44.2129 29.1205C44.6427 29.5502 45.2256 29.7917 45.8334 29.7917H48.125C48.7328 29.7917 49.3157 29.5502 49.7455 29.1205C50.1753 28.6907 50.4167 28.1078 50.4167 27.5C50.4167 26.8922 50.1753 26.3093 49.7455 25.8796C49.3157 25.4498 48.7328 25.2083 48.125 25.2083ZM27.5 43.5417C26.8923 43.5417 26.3094 43.7831 25.8796 44.2129C25.4498 44.6427 25.2084 45.2256 25.2084 45.8333V48.125C25.2084 48.7328 25.4498 49.3157 25.8796 49.7455C26.3094 50.1752 26.8923 50.4167 27.5 50.4167C28.1078 50.4167 28.6907 50.1752 29.1205 49.7455C29.5503 49.3157 29.7917 48.7328 29.7917 48.125V45.8333C29.7917 45.2256 29.5503 44.6427 29.1205 44.2129C28.6907 43.7831 28.1078 43.5417 27.5 43.5417ZM42.075 38.9583C41.6397 38.7162 41.1372 38.6225 40.6438 38.6915C40.1504 38.7604 39.6929 38.9883 39.3406 39.3406C38.9883 39.6929 38.7605 40.1504 38.6915 40.6438C38.6225 41.1372 38.7162 41.6396 38.9584 42.075L40.5855 43.7021C41.0148 44.1289 41.5957 44.3685 42.2011 44.3685C42.8065 44.3685 43.3873 44.1289 43.8167 43.7021C44.2435 43.2727 44.4831 42.6919 44.4831 42.0865C44.4831 41.481 44.2435 40.9002 43.8167 40.4708L42.075 38.9583ZM27.5 14.8958C25.0072 14.8958 22.5703 15.6351 20.4975 17.02C18.4248 18.405 16.8093 20.3735 15.8553 22.6766C14.9013 24.9797 14.6517 27.514 15.1381 29.959C15.6244 32.4039 16.8248 34.6498 18.5875 36.4125C20.3503 38.1752 22.5961 39.3757 25.0411 39.862C27.4861 40.3483 30.0203 40.0987 32.3234 39.1447C34.6266 38.1908 36.5951 36.5753 37.98 34.5025C39.365 32.4298 40.1042 29.9929 40.1042 27.5C40.0982 24.159 38.7683 20.9566 36.4058 18.5942C34.0434 16.2318 30.841 14.9019 27.5 14.8958ZM27.5 35.5208C25.9137 35.5208 24.3629 35.0504 23.0439 34.1691C21.7249 33.2878 20.6968 32.0351 20.0898 30.5695C19.4827 29.1038 19.3238 27.4911 19.6333 25.9352C19.9428 24.3793 20.7067 22.9502 21.8285 21.8284C22.9502 20.7067 24.3794 19.9428 25.9353 19.6333C27.4911 19.3238 29.1039 19.4826 30.5695 20.0897C32.0351 20.6968 33.2878 21.7249 34.1691 23.0439C35.0505 24.3629 35.5209 25.9136 35.5209 27.5C35.5209 29.6273 34.6758 31.6674 33.1716 33.1716C31.6674 34.6758 29.6273 35.5208 27.5 35.5208Z" />
</svg>
