<svg width="64" height="64" viewBox="0 0 64 64" xmlns="http://www.w3.org/2000/svg">
<path d="M48 5.33333H21.3333C18.5043 5.33333 15.7912 6.45714 13.7908 8.45753C11.7904 10.4579 10.6666 13.171 10.6666 16V48C10.6666 50.829 11.7904 53.5421 13.7908 55.5425C15.7912 57.5429 18.5043 58.6667 21.3333 58.6667H48C49.4144 58.6667 50.771 58.1048 51.7712 57.1046C52.7714 56.1044 53.3333 54.7478 53.3333 53.3333V10.6667C53.3333 9.25218 52.7714 7.89562 51.7712 6.89543C50.771 5.89524 49.4144 5.33333 48 5.33333ZM16 16C16 14.5855 16.5619 13.229 17.5621 12.2288C18.5622 11.2286 19.9188 10.6667 21.3333 10.6667H48V37.3333H21.3333C19.4534 37.3412 17.6106 37.8572 16 38.8267V16ZM21.3333 53.3333C19.9188 53.3333 18.5622 52.7714 17.5621 51.7712C16.5619 50.771 16 49.4145 16 48C16 46.5855 16.5619 45.229 17.5621 44.2288C18.5622 43.2286 19.9188 42.6667 21.3333 42.6667H48V53.3333H21.3333ZM26.6666 21.3333H37.3333C38.0405 21.3333 38.7188 21.0524 39.2189 20.5523C39.719 20.0522 40 19.3739 40 18.6667C40 17.9594 39.719 17.2811 39.2189 16.781C38.7188 16.281 38.0405 16 37.3333 16H26.6666C25.9594 16 25.2811 16.281 24.781 16.781C24.2809 17.2811 24 17.9594 24 18.6667C24 19.3739 24.2809 20.0522 24.781 20.5523C25.2811 21.0524 25.9594 21.3333 26.6666 21.3333Z" />
</svg>
