<svg viewBox="0 0 24 24" xmlns="http://www.w3.org/2000/svg">
<path d="M21.6751 14.6649L20.1399 13.3524C20.2126 12.9071 20.2501 12.4524 20.2501 11.9977C20.2501 11.543 20.2126 11.0883 20.1399 10.643L21.6751 9.33051C21.7908 9.23138 21.8737 9.09936 21.9127 8.95199C21.9516 8.80462 21.9447 8.64889 21.893 8.50551L21.8719 8.44457C21.4493 7.26338 20.8165 6.1684 20.004 5.21254L19.9618 5.16332C19.8632 5.04742 19.7318 4.96411 19.585 4.92437C19.4381 4.88462 19.2827 4.8903 19.1391 4.94066L17.2336 5.61801C16.5305 5.04144 15.7454 4.58676 14.8969 4.26801L14.529 2.27582C14.5012 2.12592 14.4285 1.98801 14.3205 1.88042C14.2125 1.77283 14.0743 1.70065 13.9243 1.67347L13.861 1.66176C12.6399 1.44144 11.3555 1.44144 10.1344 1.66176L10.0711 1.67347C9.92114 1.70065 9.78295 1.77283 9.67494 1.88042C9.56694 1.98801 9.49422 2.12592 9.46646 2.27582L9.09615 4.27738C8.25448 4.5962 7.47068 5.05064 6.77584 5.62269L4.8563 4.94066C4.71279 4.8899 4.55722 4.88401 4.41028 4.92379C4.26333 4.96356 4.13197 5.0471 4.03365 5.16332L3.99146 5.21254C3.17993 6.16908 2.54718 7.26387 2.12349 8.44457L2.1024 8.50551C1.99693 8.79847 2.08365 9.1266 2.32037 9.33051L3.87427 10.6571C3.80162 11.0977 3.76646 11.5477 3.76646 11.9953C3.76646 12.4453 3.80162 12.8953 3.87427 13.3336L2.32037 14.6602C2.20457 14.7593 2.1217 14.8913 2.08277 15.0387C2.04383 15.1861 2.05068 15.3418 2.1024 15.4852L2.12349 15.5461C2.54771 16.7274 3.17583 17.8172 3.99146 18.7782L4.03365 18.8274C4.13221 18.9433 4.26358 19.0266 4.41043 19.0663C4.55729 19.1061 4.71274 19.1004 4.8563 19.05L6.77584 18.368C7.47427 18.9422 8.25474 19.3969 9.09615 19.7133L9.46646 21.7149C9.49422 21.8648 9.56694 22.0027 9.67494 22.1103C9.78295 22.2179 9.92114 22.29 10.0711 22.3172L10.1344 22.3289C11.3667 22.5504 12.6287 22.5504 13.861 22.3289L13.9243 22.3172C14.0743 22.29 14.2125 22.2179 14.3205 22.1103C14.4285 22.0027 14.5012 21.8648 14.529 21.7149L14.8969 19.7227C15.745 19.4048 16.5346 18.9486 17.2336 18.3727L19.1391 19.05C19.2826 19.1008 19.4382 19.1067 19.5851 19.0669C19.7321 19.0271 19.8634 18.9436 19.9618 18.8274L20.004 18.7782C20.8196 17.8149 21.4477 16.7274 21.8719 15.5461L21.893 15.4852C21.9985 15.1969 21.9118 14.8688 21.6751 14.6649ZM18.4758 10.9196C18.5344 11.2735 18.5649 11.6368 18.5649 12C18.5649 12.3633 18.5344 12.7266 18.4758 13.0805L18.3211 14.0203L20.0719 15.518C19.8065 16.1295 19.4715 16.7083 19.0735 17.243L16.8985 16.4719L16.1626 17.0766C15.6024 17.536 14.979 17.8969 14.304 18.15L13.411 18.4852L12.9915 20.7586C12.3295 20.8336 11.6612 20.8336 10.9993 20.7586L10.5797 18.4805L9.6938 18.1407C9.02584 17.8875 8.40474 17.5266 7.84927 17.0696L7.11334 16.4625L4.92427 17.2407C4.52584 16.7039 4.19302 16.125 3.92583 15.5157L5.69537 14.0039L5.54302 13.0664C5.48677 12.7172 5.4563 12.3563 5.4563 12C5.4563 11.6414 5.48443 11.2828 5.54302 10.9336L5.69537 9.99613L3.92583 8.48441C4.19068 7.87269 4.52584 7.29613 4.92427 6.75941L7.11334 7.53754L7.84927 6.93051C8.40474 6.47347 9.02584 6.11254 9.6938 5.85941L10.5821 5.52426L11.0016 3.24613C11.6602 3.17113 12.3329 3.17113 12.9938 3.24613L13.4133 5.51957L14.3063 5.85472C14.979 6.10785 15.6047 6.46879 16.1649 6.92816L16.9008 7.53285L19.0758 6.76175C19.4743 7.29847 19.8071 7.87738 20.0743 8.48676L18.3235 9.98441L18.4758 10.9196ZM12.0001 7.64066C9.72193 7.64066 7.87505 9.48754 7.87505 11.7657C7.87505 14.0438 9.72193 15.8907 12.0001 15.8907C14.2782 15.8907 16.1251 14.0438 16.1251 11.7657C16.1251 9.48754 14.2782 7.64066 12.0001 7.64066ZM13.8563 13.6219C13.6128 13.8661 13.3235 14.0597 13.0049 14.1916C12.6864 14.3236 12.3449 14.3912 12.0001 14.3907C11.2993 14.3907 10.6407 14.1164 10.1438 13.6219C9.89964 13.3784 9.70602 13.0891 9.57409 12.7705C9.44216 12.452 9.37452 12.1105 9.37505 11.7657C9.37505 11.0649 9.64927 10.4063 10.1438 9.90941C10.6407 9.41254 11.2993 9.14066 12.0001 9.14066C12.7008 9.14066 13.3594 9.41254 13.8563 9.90941C14.1005 10.1529 14.2941 10.4422 14.426 10.7608C14.5579 11.0793 14.6256 11.4209 14.6251 11.7657C14.6251 12.4664 14.3508 13.125 13.8563 13.6219Z" />
</svg>
