<svg viewBox="0 0 20 24" xmlns="http://www.w3.org/2000/svg">
<path d="M19.375 10.7344C19.375 8.59515 18.6356 6.50281 17.2927 4.84277C16.0791 3.34222 14.4196 2.24652 12.5781 1.71918V0H7.42188V1.71918C5.59631 2.24176 3.95074 3.32153 2.73895 4.80377C1.37573 6.47095 0.625 8.57721 0.625 10.7344C0.625 14.4992 2.85596 17.7523 6.06506 19.2424L5.4328 22.5938H4.09375V24H15.9062V22.5938H14.5672L13.9349 19.2424C17.144 17.7523 19.375 14.4992 19.375 10.7344ZM16.1994 5.72699C17.1927 6.95526 17.7974 8.46204 17.9373 10.0312H11.9885C11.901 9.78497 11.7692 9.55975 11.6025 9.36493L14.5771 4.21271C15.1821 4.6377 15.7299 5.14655 16.1994 5.72699ZM8.82812 1.40625H11.1719V2.14618L10 3.31805L8.82812 2.14618V1.40625ZM7.77435 3.08112L10 5.30695L12.226 3.08093C12.6147 3.19409 12.994 3.33728 13.3602 3.5083L10.3853 8.66089C10.2602 8.63763 10.1317 8.625 10 8.625C9.86835 8.625 9.73981 8.63763 9.61475 8.66089L6.64001 3.50848C7.00604 3.33746 7.38525 3.19446 7.77435 3.08112ZM10.7031 10.7344C10.7031 11.122 10.3876 11.4375 10 11.4375C9.61237 11.4375 9.29688 11.122 9.29688 10.7344C9.29688 10.3467 9.61237 10.0312 10 10.0312C10.3876 10.0312 10.7031 10.3467 10.7031 10.7344ZM3.82751 5.69403C4.29132 5.12677 4.82947 4.62891 5.42255 4.21234L8.39746 9.36493C8.23083 9.55975 8.09882 9.78497 8.01147 10.0312H2.06274C2.20374 8.44739 2.81787 6.92889 3.82751 5.69403ZM5.42383 17.2544C3.55396 15.938 2.27368 13.8389 2.06256 11.4375H8.01147C8.099 11.6838 8.23083 11.909 8.39746 12.1038L5.42383 17.2544ZM6.86377 22.5938L7.40173 19.7428C8.22717 19.9812 9.09894 20.1094 10 20.1094C10.9011 20.1094 11.7728 19.9812 12.5983 19.7428L13.1362 22.5938H6.86377ZM10 18.7031C8.80029 18.7031 7.66211 18.4362 6.64056 17.9594L9.61475 12.8079C9.73981 12.8309 9.86835 12.8438 10 12.8438C10.1317 12.8438 10.2602 12.8311 10.3853 12.8079L13.3594 17.9594C12.3379 18.4362 11.1997 18.7031 10 18.7031ZM14.5762 17.2544L11.6025 12.1038C11.7692 11.909 11.9012 11.6838 11.9885 11.4375H17.9374C17.7263 13.8389 16.446 15.938 14.5762 17.2544Z" />
</svg>
