<svg viewBox="0 0 24 24" xmlns="http://www.w3.org/2000/svg">
<path d="M20.8125 18.375H15.5625C15.4594 18.375 15.375 18.4593 15.375 18.5625V19.6875C15.375 19.7906 15.4594 19.875 15.5625 19.875H20.8125C20.9156 19.875 21 19.7906 21 19.6875V18.5625C21 18.4593 20.9156 18.375 20.8125 18.375ZM8.7539 11.9625C8.73281 11.7586 8.72109 11.5523 8.72109 11.3437C8.72109 10.9711 8.75625 10.6078 8.82187 10.2539C8.83828 10.1695 8.79375 10.0828 8.7164 10.0476C8.39765 9.90466 8.10469 9.70778 7.85156 9.45935C7.55329 9.17014 7.31859 8.82194 7.16242 8.43696C7.00624 8.05198 6.93204 7.63867 6.94453 7.22341C6.96562 6.47106 7.26797 5.75622 7.79531 5.21716C8.37422 4.62419 9.15234 4.30075 9.97968 4.31013C10.7273 4.31716 11.4492 4.60544 11.9953 5.11638C12.1805 5.28981 12.3398 5.482 12.4734 5.68825C12.5203 5.76091 12.6117 5.79138 12.6914 5.76325C13.1039 5.62028 13.5398 5.5195 13.9875 5.47263C14.1187 5.45856 14.1937 5.31794 14.1352 5.20075C13.3734 3.69372 11.8172 2.6531 10.0172 2.62497C7.41797 2.58513 5.25234 4.7156 5.25234 7.31013C5.25234 8.782 5.92968 10.0945 6.9914 10.9547C6.24609 11.2992 5.55937 11.775 4.96406 12.3703C3.67969 13.6523 2.95312 15.3445 2.90625 17.1515C2.90562 17.1765 2.91001 17.2014 2.91915 17.2247C2.92829 17.248 2.94201 17.2692 2.95948 17.2872C2.97695 17.3051 2.99784 17.3193 3.02089 17.329C3.04395 17.3387 3.06873 17.3437 3.09375 17.3437H4.40859C4.50937 17.3437 4.59375 17.264 4.59609 17.1632C4.64062 15.8039 5.1914 14.5312 6.15937 13.5656C6.84843 12.8765 7.69218 12.3984 8.61328 12.1664C8.70469 12.1429 8.76562 12.0562 8.7539 11.9625ZM19.3125 11.3437C19.3125 8.77966 17.2523 6.69606 14.6977 6.65622C12.1008 6.61638 9.9375 8.74685 9.9375 11.3437C9.9375 12.8156 10.6172 14.1281 11.6766 14.9883C10.9235 15.3373 10.238 15.8165 9.65156 16.4039C8.36718 17.6859 7.64062 19.3781 7.59375 21.1828C7.59312 21.2078 7.59751 21.2327 7.60665 21.256C7.61579 21.2793 7.62951 21.3005 7.64698 21.3184C7.66445 21.3363 7.68534 21.3505 7.7084 21.3603C7.73145 21.37 7.75623 21.375 7.78125 21.375H9.09375C9.19453 21.375 9.2789 21.2953 9.28125 21.1945C9.32578 19.8351 9.87656 18.5625 10.8445 17.5968C11.8547 16.5867 13.1953 16.0312 14.625 16.0312C17.2125 16.0312 19.3125 13.9336 19.3125 11.3437ZM16.7461 13.4648C16.1789 14.032 15.4266 14.3437 14.625 14.3437C13.8234 14.3437 13.0711 14.032 12.5039 13.4648C12.2209 13.1833 11.9972 12.8477 11.8463 12.4782C11.6953 12.1086 11.62 11.7125 11.625 11.3133C11.632 10.5445 11.9391 9.80153 12.4758 9.25075C13.0383 8.67419 13.7906 8.3531 14.5945 8.34372C15.3891 8.33669 16.1602 8.64606 16.7273 9.20153C17.3086 9.77106 17.6273 10.5328 17.6273 11.3437C17.625 12.1453 17.3133 12.8976 16.7461 13.4648Z" />
</svg>
