<svg width="64" height="64" viewBox="0 0 64 64" xmlns="http://www.w3.org/2000/svg">
<path d="M32.8 32.5867C34.2228 31.355 35.3641 29.8317 36.1463 28.1201C36.9285 26.4084 37.3333 24.5486 37.3333 22.6667C37.3333 19.1304 35.9285 15.7391 33.4281 13.2386C30.9276 10.7381 27.5362 9.33333 24 9.33333C20.4637 9.33333 17.0724 10.7381 14.5719 13.2386C12.0714 15.7391 10.6666 19.1304 10.6666 22.6667C10.6666 24.5486 11.0714 26.4084 11.8536 28.1201C12.6358 29.8317 13.7771 31.355 15.2 32.5867C11.467 34.277 8.29987 37.0067 6.07724 40.4495C3.85461 43.8922 2.67055 47.9022 2.66663 52C2.66663 52.7072 2.94758 53.3855 3.44767 53.8856C3.94777 54.3857 4.62605 54.6667 5.33329 54.6667C6.04054 54.6667 6.71881 54.3857 7.21891 53.8856C7.71901 53.3855 7.99996 52.7072 7.99996 52C7.99996 47.7565 9.68567 43.6869 12.6863 40.6863C15.6868 37.6857 19.7565 36 24 36C28.2434 36 32.3131 37.6857 35.3137 40.6863C38.3143 43.6869 40 47.7565 40 52C40 52.7072 40.2809 53.3855 40.781 53.8856C41.2811 54.3857 41.9594 54.6667 42.6666 54.6667C43.3739 54.6667 44.0522 54.3857 44.5522 53.8856C45.0523 53.3855 45.3333 52.7072 45.3333 52C45.3294 47.9022 44.1453 43.8922 41.9227 40.4495C39.7001 37.0067 36.5329 34.277 32.8 32.5867ZM24 30.6667C22.4177 30.6667 20.871 30.1975 19.5554 29.3184C18.2398 28.4394 17.2144 27.1899 16.6089 25.7281C16.0034 24.2663 15.845 22.6578 16.1537 21.1059C16.4624 19.5541 17.2243 18.1286 18.3431 17.0098C19.4619 15.891 20.8874 15.1291 22.4392 14.8204C23.9911 14.5117 25.5996 14.6701 27.0614 15.2756C28.5232 15.8811 29.7727 16.9065 30.6517 18.2221C31.5308 19.5377 32 21.0844 32 22.6667C32 24.7884 31.1571 26.8232 29.6568 28.3235C28.1565 29.8238 26.1217 30.6667 24 30.6667ZM49.9733 31.52C51.6799 29.5982 52.7947 27.2241 53.1834 24.6836C53.5722 22.143 53.2184 19.5442 52.1647 17.2C51.1109 14.8558 49.4021 12.8661 47.2439 11.4705C45.0857 10.0748 42.5701 9.33264 40 9.33333C39.2927 9.33333 38.6144 9.61428 38.1143 10.1144C37.6142 10.6145 37.3333 11.2928 37.3333 12C37.3333 12.7072 37.6142 13.3855 38.1143 13.8856C38.6144 14.3857 39.2927 14.6667 40 14.6667C42.1217 14.6667 44.1565 15.5095 45.6568 17.0098C47.1571 18.5101 48 20.5449 48 22.6667C47.9962 24.0673 47.6247 25.4424 46.9228 26.6545C46.2208 27.8665 45.213 28.873 44 29.5733C43.6046 29.8014 43.2744 30.1271 43.0409 30.5193C42.8075 30.9115 42.6786 31.3571 42.6666 31.8133C42.6555 32.266 42.7598 32.7141 42.9697 33.1154C43.1797 33.5166 43.4883 33.8577 43.8666 34.1067L44.9066 34.8L45.2533 34.9867C48.4677 36.5112 51.1795 38.9226 53.0692 41.9368C54.959 44.951 55.9481 48.4425 55.92 52C55.92 52.7072 56.2009 53.3855 56.701 53.8856C57.2011 54.3857 57.8794 54.6667 58.5866 54.6667C59.2939 54.6667 59.9721 54.3857 60.4722 53.8856C60.9723 53.3855 61.2533 52.7072 61.2533 52C61.2751 47.9078 60.2502 43.878 58.2759 40.2935C56.3016 36.709 53.4435 33.6888 49.9733 31.52Z" />
</svg>
