<svg width="64" height="64" viewBox="0 0 64 64" xmlns="http://www.w3.org/2000/svg">
<path d="M31.9999 5.33334C26.8279 5.34317 21.7703 6.85684 17.4432 9.68998C13.1161 12.5231 9.70632 16.5535 7.6291 21.2901C5.55189 26.0267 4.89693 31.2651 5.744 36.3674C6.59106 41.4696 8.9036 46.2154 12.3999 50.0267C14.8971 52.7335 17.9278 54.8937 21.3011 56.3712C24.6744 57.8488 28.3172 58.6116 31.9999 58.6116C35.6826 58.6116 39.3254 57.8488 42.6988 56.3712C46.0721 54.8937 49.1028 52.7335 51.5999 50.0267C55.0963 46.2154 57.4088 41.4696 58.2559 36.3674C59.1029 31.2651 58.448 26.0267 56.3708 21.2901C54.2935 16.5535 50.8837 12.5231 46.5566 9.68998C42.2296 6.85684 37.172 5.34317 31.9999 5.33334V5.33334ZM31.9999 53.3333C26.4758 53.325 21.1704 51.1741 17.1999 47.3333C18.4054 44.3988 20.456 41.8888 23.0913 40.1224C25.7265 38.356 28.8274 37.4128 31.9999 37.4128C35.1724 37.4128 38.2733 38.356 40.9086 40.1224C43.5438 41.8888 45.5945 44.3988 46.7999 47.3333C42.8295 51.1741 37.524 53.325 31.9999 53.3333ZM26.6666 26.6667C26.6666 25.6118 26.9794 24.5807 27.5654 23.7036C28.1515 22.8266 28.9844 22.143 29.9589 21.7393C30.9335 21.3357 32.0058 21.23 33.0404 21.4358C34.075 21.6416 35.0253 22.1496 35.7712 22.8954C36.517 23.6413 37.025 24.5916 37.2308 25.6262C37.4366 26.6608 37.331 27.7331 36.9273 28.7077C36.5236 29.6822 35.84 30.5151 34.963 31.1012C34.0859 31.6872 33.0548 32 31.9999 32C30.5854 32 29.2289 31.4381 28.2287 30.4379C27.2285 29.4377 26.6666 28.0812 26.6666 26.6667ZM50.4266 42.6667C48.044 38.5914 44.377 35.4214 39.9999 33.6533C41.3577 32.1138 42.2424 30.2151 42.5479 28.1852C42.8533 26.1553 42.5665 24.0803 41.7219 22.2093C40.8773 20.3384 39.5108 18.7508 37.7863 17.6373C36.0619 16.5237 34.0527 15.9313 31.9999 15.9313C29.9472 15.9313 27.938 16.5237 26.2135 17.6373C24.489 18.7508 23.1225 20.3384 22.2779 22.2093C21.4333 24.0803 21.1466 26.1553 21.452 28.1852C21.7575 30.2151 22.6421 32.1138 23.9999 33.6533C19.6229 35.4214 15.9558 38.5914 13.5733 42.6667C11.6744 39.4323 10.6712 35.7506 10.6666 32C10.6666 26.3421 12.9142 20.9158 16.915 16.9151C20.9158 12.9143 26.342 10.6667 31.9999 10.6667C37.6579 10.6667 43.0841 12.9143 47.0849 16.9151C51.0856 20.9158 53.3333 26.3421 53.3333 32C53.3287 35.7506 52.3254 39.4323 50.4266 42.6667V42.6667Z" />
</svg>
