<svg width="86" height="86" viewBox="0 0 86 86" xmlns="http://www.w3.org/2000/svg">
<path d="M14.3334 43C14.3334 43.9504 14.7109 44.8618 15.3829 45.5338C16.0549 46.2058 16.9663 46.5833 17.9167 46.5833H45.1142L36.8725 54.7892C36.5367 55.1223 36.2701 55.5186 36.0882 55.9553C35.9063 56.3919 35.8126 56.8603 35.8126 57.3333C35.8126 57.8064 35.9063 58.2747 36.0882 58.7114C36.2701 59.1481 36.5367 59.5444 36.8725 59.8775C37.2057 60.2133 37.602 60.4799 38.0386 60.6619C38.4753 60.8438 38.9437 60.9374 39.4167 60.9374C39.8897 60.9374 40.3581 60.8438 40.7948 60.6619C41.2314 60.4799 41.6278 60.2133 41.9609 59.8775L56.2942 45.5442C56.6204 45.2034 56.8762 44.8015 57.0467 44.3617C57.4051 43.4893 57.4051 42.5107 57.0467 41.6383C56.8762 41.1985 56.6204 40.7966 56.2942 40.4558L41.9609 26.1225C41.6268 25.7884 41.2301 25.5234 40.7936 25.3425C40.3571 25.1617 39.8892 25.0687 39.4167 25.0687C38.9442 25.0687 38.4763 25.1617 38.0398 25.3425C37.6033 25.5234 37.2066 25.7884 36.8725 26.1225C36.5384 26.4566 36.2734 26.8532 36.0926 27.2898C35.9118 27.7263 35.8187 28.1942 35.8187 28.6667C35.8187 29.1392 35.9118 29.607 36.0926 30.0436C36.2734 30.4801 36.5384 30.8767 36.8725 31.2108L45.1142 39.4167H17.9167C16.9663 39.4167 16.0549 39.7942 15.3829 40.4662C14.7109 41.1382 14.3334 42.0496 14.3334 43ZM60.9167 7.16666H25.0834C22.2323 7.16666 19.498 8.29924 17.482 10.3153C15.466 12.3313 14.3334 15.0656 14.3334 17.9167V28.6667C14.3334 29.617 14.7109 30.5285 15.3829 31.2005C16.0549 31.8725 16.9663 32.25 17.9167 32.25C18.8671 32.25 19.7785 31.8725 20.4505 31.2005C21.1225 30.5285 21.5 29.617 21.5 28.6667V17.9167C21.5 16.9663 21.8776 16.0549 22.5496 15.3829C23.2216 14.7109 24.133 14.3333 25.0834 14.3333H60.9167C61.8671 14.3333 62.7785 14.7109 63.4505 15.3829C64.1225 16.0549 64.5 16.9663 64.5 17.9167V68.0833C64.5 69.0337 64.1225 69.9451 63.4505 70.6171C62.7785 71.2891 61.8671 71.6667 60.9167 71.6667H25.0834C24.133 71.6667 23.2216 71.2891 22.5496 70.6171C21.8776 69.9451 21.5 69.0337 21.5 68.0833V57.3333C21.5 56.383 21.1225 55.4715 20.4505 54.7995C19.7785 54.1275 18.8671 53.75 17.9167 53.75C16.9663 53.75 16.0549 54.1275 15.3829 54.7995C14.7109 55.4715 14.3334 56.383 14.3334 57.3333V68.0833C14.3334 70.9344 15.466 73.6687 17.482 75.6847C19.498 77.7007 22.2323 78.8333 25.0834 78.8333H60.9167C63.7678 78.8333 66.5021 77.7007 68.5181 75.6847C70.5341 73.6687 71.6667 70.9344 71.6667 68.0833V17.9167C71.6667 15.0656 70.5341 12.3313 68.5181 10.3153C66.5021 8.29924 63.7678 7.16666 60.9167 7.16666Z"/>
</svg>
